<svg id="visual" viewBox="0 0 900 600" width="900" height="600" xmlns="http://www.w3.org/2000/svg" xmlns:xlink="http://www.w3.org/1999/xlink" version="1.1"><rect x="0" y="0" width="900" height="600" fill="#001220"></rect><path d="M0 173L13.7 182C27.3 191 54.7 209 82 210.7C109.3 212.3 136.7 197.7 163.8 193.3C191 189 218 195 245.2 205.3C272.3 215.7 299.7 230.3 327 233.3C354.3 236.3 381.7 227.7 409 218.7C436.3 209.7 463.7 200.3 491 193.8C518.3 187.3 545.7 183.7 573 192.5C600.3 201.3 627.7 222.7 654.8 227.2C682 231.7 709 219.3 736.2 218.5C763.3 217.7 790.7 228.3 818 229.7C845.3 231 872.7 223 886.3 219L900 215L900 0L886.3 0C872.7 0 845.3 0 818 0C790.7 0 763.3 0 736.2 0C709 0 682 0 654.8 0C627.7 0 600.3 0 573 0C545.7 0 518.3 0 491 0C463.7 0 436.3 0 409 0C381.7 0 354.3 0 327 0C299.7 0 272.3 0 245.2 0C218 0 191 0 163.8 0C136.7 0 109.3 0 82 0C54.7 0 27.3 0 13.7 0L0 0Z" fill="#fa7268"></path><path d="M0 187L13.7 186.5C27.3 186 54.7 185 82 178.7C109.3 172.3 136.7 160.7 163.8 164C191 167.3 218 185.7 245.2 188.5C272.3 191.3 299.7 178.7 327 177.5C354.3 176.3 381.7 186.7 409 186.5C436.3 186.3 463.7 175.7 491 166.2C518.3 156.7 545.7 148.3 573 153.2C600.3 158 627.7 176 654.8 189.3C682 202.7 709 211.3 736.2 206C763.3 200.7 790.7 181.3 818 174.7C845.3 168 872.7 174 886.3 177L900 180L900 0L886.3 0C872.7 0 845.3 0 818 0C790.7 0 763.3 0 736.2 0C709 0 682 0 654.8 0C627.7 0 600.3 0 573 0C545.7 0 518.3 0 491 0C463.7 0 436.3 0 409 0C381.7 0 354.3 0 327 0C299.7 0 272.3 0 245.2 0C218 0 191 0 163.8 0C136.7 0 109.3 0 82 0C54.7 0 27.3 0 13.7 0L0 0Z" fill="#f16367"></path><path d="M0 112L13.7 114.2C27.3 116.3 54.7 120.7 82 125.3C109.3 130 136.7 135 163.8 136.3C191 137.7 218 135.3 245.2 138C272.3 140.7 299.7 148.3 327 152.7C354.3 157 381.7 158 409 162.8C436.3 167.7 463.7 176.3 491 171C518.3 165.7 545.7 146.3 573 133.8C600.3 121.3 627.7 115.7 654.8 118.7C682 121.7 709 133.3 736.2 135.5C763.3 137.7 790.7 130.3 818 123.7C845.3 117 872.7 111 886.3 108L900 105L900 0L886.3 0C872.7 0 845.3 0 818 0C790.7 0 763.3 0 736.2 0C709 0 682 0 654.8 0C627.7 0 600.3 0 573 0C545.7 0 518.3 0 491 0C463.7 0 436.3 0 409 0C381.7 0 354.3 0 327 0C299.7 0 272.3 0 245.2 0C218 0 191 0 163.8 0C136.7 0 109.3 0 82 0C54.7 0 27.3 0 13.7 0L0 0Z" fill="#e85467"></path><path d="M0 133L13.7 125.5C27.3 118 54.7 103 82 95.8C109.3 88.7 136.7 89.3 163.8 93C191 96.7 218 103.3 245.2 102C272.3 100.7 299.7 91.3 327 93C354.3 94.7 381.7 107.3 409 115C436.3 122.7 463.7 125.3 491 122.8C518.3 120.3 545.7 112.7 573 109.5C600.3 106.3 627.7 107.7 654.8 109.7C682 111.7 709 114.3 736.2 110.7C763.3 107 790.7 97 818 96.2C845.3 95.3 872.7 103.7 886.3 107.8L900 112L900 0L886.3 0C872.7 0 845.3 0 818 0C790.7 0 763.3 0 736.2 0C709 0 682 0 654.8 0C627.7 0 600.3 0 573 0C545.7 0 518.3 0 491 0C463.7 0 436.3 0 409 0C381.7 0 354.3 0 327 0C299.7 0 272.3 0 245.2 0C218 0 191 0 163.8 0C136.7 0 109.3 0 82 0C54.7 0 27.3 0 13.7 0L0 0Z" fill="#de4467"></path><path d="M0 56L13.7 60.7C27.3 65.3 54.7 74.7 82 74.7C109.3 74.7 136.7 65.3 163.8 68.8C191 72.3 218 88.7 245.2 89.2C272.3 89.7 299.7 74.3 327 65.8C354.3 57.3 381.7 55.7 409 60.5C436.3 65.3 463.7 76.7 491 84.7C518.3 92.7 545.7 97.3 573 93.2C600.3 89 627.7 76 654.8 75.5C682 75 709 87 736.2 90.2C763.3 93.3 790.7 87.7 818 86.2C845.3 84.7 872.7 87.3 886.3 88.7L900 90L900 0L886.3 0C872.7 0 845.3 0 818 0C790.7 0 763.3 0 736.2 0C709 0 682 0 654.8 0C627.7 0 600.3 0 573 0C545.7 0 518.3 0 491 0C463.7 0 436.3 0 409 0C381.7 0 354.3 0 327 0C299.7 0 272.3 0 245.2 0C218 0 191 0 163.8 0C136.7 0 109.3 0 82 0C54.7 0 27.3 0 13.7 0L0 0Z" fill="#d23467"></path><path d="M0 36L13.7 38.7C27.3 41.3 54.7 46.7 82 47.2C109.3 47.7 136.7 43.3 163.8 37.5C191 31.7 218 24.3 245.2 28C272.3 31.7 299.7 46.3 327 50.3C354.3 54.3 381.7 47.7 409 44.2C436.3 40.7 463.7 40.3 491 37.5C518.3 34.7 545.7 29.3 573 31.7C600.3 34 627.7 44 654.8 47.8C682 51.7 709 49.3 736.2 48C763.3 46.7 790.7 46.3 818 49.3C845.3 52.3 872.7 58.7 886.3 61.8L900 65L900 0L886.3 0C872.7 0 845.3 0 818 0C790.7 0 763.3 0 736.2 0C709 0 682 0 654.8 0C627.7 0 600.3 0 573 0C545.7 0 518.3 0 491 0C463.7 0 436.3 0 409 0C381.7 0 354.3 0 327 0C299.7 0 272.3 0 245.2 0C218 0 191 0 163.8 0C136.7 0 109.3 0 82 0C54.7 0 27.3 0 13.7 0L0 0Z" fill="#c62368"></path></svg>